<?xml version="1.0" standalone="no"?>
<!DOCTYPE svg PUBLIC "-//W3C//DTD SVG 20010904//EN"
 "http://www.w3.org/TR/2001/REC-SVG-20010904/DTD/svg10.dtd">
<svg version="1.0" xmlns="http://www.w3.org/2000/svg"
 width="531.000000pt" height="480.000000pt" viewBox="0 0 531.000000 480.000000"
 preserveAspectRatio="xMidYMid meet">

<g transform="translate(0.000000,480.000000) scale(0.100000,-0.100000)"
fill="#000000" stroke="none">
<path d="M2 4783 c3 -10 449 -600 992 -1310 l987 -1293 -933 -1073 c-513 -590
-939 -1080 -947 -1090 -13 -16 9 -17 392 -17 l405 0 736 840 735 840 38 -48
c21 -26 310 -404 643 -840 l605 -792 818 0 c449 0 817 1 817 3 0 2 -468 622
-1040 1378 -572 756 -1039 1379 -1037 1385 1 9 1512 1735 1746 1996 l33 38
-408 0 -409 -1 -675 -764 c-371 -420 -677 -764 -680 -764 -3 0 -264 343 -581
762 l-575 762 -833 3 c-791 2 -833 1 -829 -15z m2868 -2353 c795 -1051 1451
-1919 1459 -1930 13 -20 11 -20 -211 -20 l-225 0 -1464 1912 c-805 1051 -1470
1920 -1477 1930 -13 17 -3 18 230 18 l243 -1 1445 -1909z"/>
</g>
</svg>
